<?xml version="1.0" standalone="no"?>
<!DOCTYPE svg PUBLIC "-//W3C//DTD SVG 20010904//EN"
 "http://www.w3.org/TR/2001/REC-SVG-20010904/DTD/svg10.dtd">
<svg version="1.0" xmlns="http://www.w3.org/2000/svg"
 width="8000.000000pt" height="4500.000000pt" viewBox="0 0 8000.000000 4500.000000"
 preserveAspectRatio="xMidYMid meet">

<g transform="translate(0.000000,4500.000000) scale(0.100000,-0.100000)"
fill="#000000" stroke="none">
<path d="M23630 31069 c-378 -43 -692 -183 -935 -420 -119 -116 -196 -218
-270 -361 -224 -432 -233 -991 -23 -1447 91 -198 270 -413 455 -544 170 -121
389 -212 623 -259 102 -20 143 -23 360 -23 228 1 254 3 371 28 323 69 571 198
779 407 235 234 369 514 415 867 55 416 -42 832 -265 1146 -77 107 -248 274
-355 345 -314 209 -746 307 -1155 261z"/>
<path d="M42810 26547 l0 -3724 -1117 -443 c-615 -243 -1133 -449 -1150 -456
-19 -7 -33 -20 -33 -30 0 -36 -74 -234 -130 -349 -209 -426 -569 -782 -1050
-1038 -534 -284 -1126 -382 -1647 -272 -508 107 -959 420 -1290 893 -36 51
-64 94 -62 96 2 1 1410 560 3129 1240 1719 681 3140 1244 3157 1252 l33 13
-39 108 c-361 1004 -902 1818 -1601 2409 -1096 926 -2526 1204 -4005 778
-1225 -353 -2242 -1055 -2864 -1979 -306 -454 -511 -943 -616 -1470 -169 -844
-79 -1703 272 -2595 73 -187 228 -511 323 -675 356 -619 836 -1137 1392 -1502
566 -371 1191 -586 1908 -654 163 -16 588 -16 760 0 696 63 1362 257 2020 586
1284 643 2166 1706 2490 3005 46 181 83 380 102 535 11 94 14 -181 18 -1925
l5 -2035 1228 -3 1227 -2 0 5980 0 5980 -1230 0 -1230 0 0 -3723z m-4330
-1362 c393 -71 726 -234 1037 -506 124 -108 357 -369 342 -383 -12 -11 -4080
-1618 -4085 -1613 -16 15 -25 290 -15 434 24 323 93 578 228 845 341 673 1065
1140 1923 1242 90 10 479 -2 570 -19z"/>
<path d="M17745 27019 c-521 -21 -1023 -126 -1490 -310 -151 -60 -435 -201
-580 -288 -228 -138 -443 -300 -645 -485 -57 -53 -107 -93 -111 -88 -4 4 -67
220 -140 480 l-134 472 -912 0 -913 0 0 -5860 0 -5860 1228 2 1227 3 3 1943 2
1943 78 -59 c461 -350 1038 -606 1636 -727 376 -75 535 -90 976 -89 309 0 392
3 540 22 616 75 1157 244 1635 511 983 550 1672 1456 1974 2601 259 982 216
2114 -116 3030 -127 350 -273 641 -469 935 -816 1225 -2197 1890 -3789 1824z
m150 -2123 c788 -117 1382 -536 1714 -1207 329 -664 334 -1561 12 -2234 -324
-678 -921 -1102 -1721 -1222 -145 -22 -587 -25 -725 -5 -464 67 -853 229
-1175 489 -99 81 -281 268 -355 368 -322 430 -482 974 -462 1570 12 346 73
632 198 924 130 303 332 580 572 787 349 300 781 483 1272 539 150 18 527 12
670 -9z"/>
<path d="M49995 27019 c-1072 -39 -2048 -375 -2799 -963 -873 -683 -1416
-1672 -1565 -2846 -81 -639 -35 -1355 125 -1950 158 -587 424 -1115 792 -1575
129 -161 446 -476 612 -609 690 -551 1523 -869 2530 -968 179 -17 839 -17
1015 0 894 88 1661 351 2316 794 647 436 1171 1042 1521 1758 55 114 128 276
128 286 0 2 -560 4 -1244 4 l-1243 0 -49 -62 c-162 -210 -398 -401 -664 -541
-639 -335 -1526 -377 -2182 -103 -618 258 -1039 760 -1219 1454 -16 62 -29
122 -29 133 0 19 45 19 3273 19 l3272 0 28 -167 c134 -795 470 -1523 968
-2097 98 -114 326 -341 439 -437 617 -529 1444 -885 2340 -1008 285 -39 407
-46 785 -46 389 0 508 7 813 51 547 78 1071 240 1542 479 847 430 1534 1124
1966 1987 57 114 154 324 154 334 0 2 -560 4 -1244 4 l-1244 0 -70 -88 c-262
-329 -676 -584 -1145 -707 -509 -133 -1074 -120 -1542 36 -246 83 -516 237
-708 405 -303 265 -535 659 -647 1097 l-39 152 3398 3 3399 2 6 31 c10 50 7
529 -4 704 -67 1044 -355 1927 -864 2650 -195 277 -512 617 -761 817 -752 603
-1677 927 -2760 967 -1926 70 -3519 -753 -4323 -2234 -157 -290 -290 -632
-380 -980 l-29 -109 -22 84 c-70 260 -194 592 -310 835 -395 822 -1028 1481
-1815 1886 -740 381 -1575 553 -2521 518z m595 -1975 c647 -76 1197 -400 1540
-909 69 -103 151 -254 203 -375 41 -98 117 -317 117 -340 0 -7 -713 -10 -2199
-10 l-2199 0 20 73 c31 112 104 291 169 416 439 842 1310 1267 2349 1145z
m8950 0 c267 -32 507 -102 735 -214 237 -116 393 -229 571 -411 166 -171 286
-346 398 -579 55 -115 156 -386 156 -420 0 -7 -680 -10 -2200 -10 -1210 0
-2200 2 -2200 5 0 3 20 68 46 143 55 167 168 401 261 542 470 711 1288 1057
2233 944z"/>
<path d="M22610 22555 l0 -4245 1228 2 1227 3 0 4240 0 4240 -1227 3 -1228 2
0 -4245z"/>
<path d="M25288 26773 c10 -16 661 -954 1446 -2086 l1428 -2058 -1504 -2146
c-827 -1181 -1504 -2152 -1506 -2160 -3 -11 235 -13 1406 -13 l1410 0 3080
4233 c1693 2327 3082 4238 3086 4245 6 9 -274 12 -1382 12 l-1390 0 -433 -642
c-239 -354 -609 -911 -822 -1238 -214 -327 -394 -600 -400 -607 -9 -9 -207
284 -832 1235 l-821 1247 -1392 3 -1393 2 19 -27z"/>
</g>
</svg>
